<?xml version="1.0" standalone="no"?>
<!DOCTYPE svg PUBLIC "-//W3C//DTD SVG 20010904//EN"
 "http://www.w3.org/TR/2001/REC-SVG-20010904/DTD/svg10.dtd">
<svg version="1.0" xmlns="http://www.w3.org/2000/svg"
 width="512.000000pt" height="512.000000pt" viewBox="0 0 512.000000 512.000000"
 preserveAspectRatio="xMidYMid meet">

<g transform="translate(0.000000,512.000000) scale(0.100000,-0.100000)"
fill="#000000" stroke="none">
<path d="M1765 4551 c-101 -16 236 -28 380 -14 l70 7 -45 7 c-55 9 -349 9
-405 0z"/>
<path d="M2313 4520 c-60 -30 -123 -88 -123 -113 0 -7 -23 -21 -50 -31 -28
-10 -52 -22 -55 -26 -3 -4 23 -11 56 -15 l61 -7 -6 -56 c-4 -30 -16 -73 -28
-94 -19 -34 -20 -40 -8 -48 8 -6 23 -10 32 -10 13 0 20 -11 24 -42 4 -24 17
-52 31 -66 21 -21 30 -23 70 -17 25 4 51 9 59 12 26 10 32 -31 18 -147 -18
-157 -18 -160 5 -160 18 0 19 -5 14 -57 -3 -32 -8 -61 -12 -64 -3 -4 -56 -14
-117 -23 -61 -9 -125 -22 -142 -28 -29 -11 -33 -10 -75 29 -120 111 -221 109
-248 -4 -16 -72 17 -163 66 -180 l25 -8 -34 -60 c-24 -44 -39 -60 -54 -60 -35
0 -171 -239 -186 -325 l-11 -65 -70 -6 c-86 -7 -135 -22 -201 -64 -67 -43
-126 -118 -148 -192 -6 -19 -4 -23 13 -23 22 0 28 -14 11 -25 -5 -3 -19 -38
-31 -77 -49 -162 18 -335 163 -417 l48 -28 -142 -6 c-79 -4 -215 -8 -303 -8
-88 -1 -191 -4 -230 -8 -68 -7 -66 -7 70 -16 183 -13 3314 -13 3500 -1 l140
10 -80 7 c-44 4 -272 10 -507 14 l-427 8 55 50 c67 61 99 114 117 192 l13 60
47 3 c67 4 83 31 69 109 -6 32 -13 66 -17 75 -5 13 0 17 27 20 29 3 33 7 36
36 4 41 -24 190 -39 208 -8 10 -37 14 -106 14 -85 0 -94 2 -90 18 3 9 13 52
22 94 l16 77 157 37 c131 31 164 43 201 71 37 28 52 33 96 33 82 0 85 7 85
197 0 182 -10 226 -66 292 -79 91 -152 111 -411 111 -171 0 -174 0 -198 -25
l-25 -24 0 -256 c0 -242 1 -256 20 -275 11 -11 32 -20 46 -20 23 0 25 -3 22
-42 l-3 -43 -50 0 -50 0 -5 59 c-4 48 -10 62 -33 82 -33 28 -27 28 -182 9 -66
-8 -146 -15 -177 -15 l-58 0 0 39 c0 22 -3 46 -6 55 -4 12 0 16 16 16 19 0 21
4 16 25 -6 24 -5 25 49 25 74 0 159 39 181 83 22 41 20 92 -6 150 l-21 47 20
27 c12 14 21 34 21 44 0 27 -150 370 -173 397 -12 13 -32 22 -49 22 -16 0 -43
7 -60 16 -35 18 -58 12 -207 -58 l-84 -40 -20 21 -21 20 26 20 c13 11 37 48
53 82 25 57 27 70 22 145 l-5 82 32 7 31 7 -43 10 c-31 7 -54 21 -79 49 -53
59 -104 82 -193 86 -69 4 -80 2 -137 -27z m198 -31 c21 -7 53 -25 71 -40 l33
-28 -30 -1 c-16 0 -37 -4 -45 -10 -17 -11 -8 -15 54 -24 22 -3 44 -10 50 -16
5 -5 12 -39 14 -75 4 -55 0 -73 -22 -119 -15 -30 -35 -57 -44 -60 -46 -15
-168 -36 -203 -36 l-40 0 7 93 c4 55 12 98 20 108 8 8 14 23 14 31 0 16 -70
86 -106 106 -19 11 -19 11 1 27 63 51 148 67 226 44z m-221 -206 c20 -25 21
-35 14 -93 -4 -36 -7 -84 -7 -107 1 -51 -22 -60 -31 -13 -3 17 -9 44 -12 60
-3 18 -12 30 -21 30 -11 0 -14 6 -8 23 3 12 9 32 12 45 4 16 10 21 23 17 10
-3 21 -1 24 4 4 5 -3 12 -14 16 -11 3 -20 15 -20 26 0 27 15 24 40 -8z m626
-211 c11 -7 205 -446 208 -470 1 -15 -215 -115 -226 -104 -20 20 -198 450
-196 472 3 21 18 31 98 67 106 47 101 45 116 35z m176 -193 c67 -152 97 -244
69 -214 -6 8 -138 308 -169 384 -3 9 0 12 9 9 8 -2 49 -83 91 -179z m-591 129
l-35 -31 -19 24 c-19 24 -19 24 4 30 13 4 38 7 54 8 l30 0 -34 -31z m104 -62
l50 -16 74 -171 c71 -163 73 -172 56 -185 -26 -19 -36 -18 -100 11 l-56 24 3
43 c2 36 7 44 26 46 20 3 22 8 22 73 0 61 -2 69 -19 69 -15 0 -20 -10 -26 -51
l-7 -51 -37 6 c-20 3 -65 6 -99 6 l-64 0 6 53 c16 126 14 122 59 143 47 23 43
23 112 0z m-23 -301 c-4 -77 -23 -173 -36 -184 -11 -9 -203 -1 -311 14 -35 5
-43 2 -69 -25 -22 -24 -36 -30 -59 -28 -97 10 19 59 209 89 l132 21 6 30 c3
17 6 45 6 62 0 70 7 77 69 74 l56 -3 -3 -50z m1343 -15 c22 -10 47 -25 55 -32
23 -20 60 -69 60 -81 0 -7 -78 -8 -237 -4 -131 4 -257 7 -280 7 l-43 0 0 71 0
72 202 -7 c168 -6 210 -10 243 -26z m-1945 -75 c14 -7 35 -24 48 -38 20 -21
21 -25 8 -30 -9 -4 -16 -18 -16 -32 0 -24 -3 -25 -55 -25 l-55 0 0 76 c0 83 1
84 70 49z m718 -20 c28 -11 52 -24 52 -30 0 -5 23 -17 52 -25 32 -9 56 -23 63
-35 5 -11 20 -37 33 -56 39 -64 42 -63 -160 -56 -128 5 -184 11 -190 20 -14
23 -9 55 11 62 19 6 42 56 56 118 3 17 11 27 18 24 7 -2 36 -12 65 -22z m466
-17 c11 -44 6 -75 -16 -94 -34 -30 -74 -44 -123 -44 -35 0 -52 6 -77 29 l-33
29 80 36 c44 20 94 42 110 50 42 20 52 19 59 -6z m900 -148 c0 -41 -1 -104 -2
-139 l-2 -64 -202 6 c-112 4 -242 7 -290 7 l-88 0 0 135 0 135 293 -2 292 -3
-1 -75z m-1659 44 c44 -4 83 -12 87 -18 4 -6 8 -26 8 -43 l0 -33 -127 3 c-144
2 -191 -11 -218 -64 -23 -43 -19 -64 36 -183 96 -208 172 -409 173 -455 l1
-44 -64 -22 c-36 -12 -67 -27 -69 -33 -2 -8 -32 -12 -88 -12 -83 0 -85 0 -95
28 -22 58 -53 116 -80 147 l-28 32 74 154 c85 175 93 220 50 260 -13 13 -25
33 -25 45 0 12 -5 35 -11 52 -9 27 -7 38 18 82 22 40 33 50 54 50 15 0 45 15
70 35 41 32 48 34 99 30 30 -2 91 -8 135 -11z m-427 -248 c3 -48 1 -55 -42
-111 -49 -65 -86 -161 -86 -226 l0 -40 -32 17 c-18 10 -51 23 -73 29 -22 7
-40 16 -40 21 0 5 52 102 115 216 l114 207 20 -31 c11 -17 21 -54 24 -82z
m1350 -35 c8 -4 16 -27 19 -50 l6 -41 -212 0 -211 0 0 29 c0 34 -22 28 220 54
74 8 142 15 150 15 8 1 21 -2 28 -7z m-855 -28 c13 -7 8 -68 -8 -89 -8 -10
-15 -36 -15 -57 0 -43 26 -74 99 -117 52 -31 105 -100 121 -159 10 -37 9 -51
-4 -86 -18 -46 -59 -91 -74 -81 -5 3 -13 18 -17 33 -3 16 -13 42 -20 58 -18
38 -175 494 -175 507 0 9 74 2 93 -9z m397 -33 l0 -30 -165 0 -165 0 0 23 0
24 128 -5 c104 -3 154 1 200 17 1 1 2 -12 2 -29z m-888 -133 c-57 -115 -61
-120 -61 -82 1 22 6 54 12 72 16 43 100 158 105 143 2 -6 -23 -67 -56 -133z
m1376 31 c35 -10 72 -58 72 -95 0 -21 -1 -21 -67 7 -188 79 -390 60 -505 -48
-59 -55 -85 -96 -109 -170 l-18 -57 0 49 c-1 88 -58 174 -161 245 -34 23 -56
46 -58 59 l-3 22 408 -1 c224 -1 423 -5 441 -11z m157 -35 c-8 -55 -24 -92
-25 -58 0 11 -9 39 -20 63 l-19 42 36 0 35 0 -7 -47z m-250 -93 c209 -53 387
-231 411 -409 l7 -54 -224 6 c-123 4 -322 7 -441 7 l-217 0 -7 45 c-8 58 10
185 37 244 66 151 232 213 434 161z m-1534 -69 c148 -47 255 -171 275 -318 l7
-53 -58 0 c-57 0 -58 0 -130 68 -123 115 -247 161 -432 162 -51 0 -93 3 -93 6
0 14 43 65 72 85 96 69 235 88 359 50z m1983 -93 c4 -29 10 -63 13 -75 3 -16
1 -23 -10 -23 -9 0 -17 15 -21 43 -4 23 -9 57 -12 75 -5 24 -3 32 9 32 10 0
16 -16 21 -52z m-984 -193 l0 -96 -257 2 c-142 2 -291 4 -330 7 l-73 4 0 30 0
30 68 -6 c153 -13 343 -18 416 -11 69 6 80 10 110 40 19 18 40 47 47 64 8 17
15 31 16 31 2 0 3 -43 3 -95z m-201 54 c6 -18 11 -34 11 -35 0 -2 -53 -4 -117
-3 l-118 1 63 21 c34 11 62 27 62 34 0 9 14 13 44 13 40 0 45 -3 55 -31z
m-901 -39 c71 -43 99 -139 62 -214 -55 -116 -216 -124 -288 -16 -33 49 -28
146 8 186 62 66 151 85 218 44z m774 -169 c5 -15 298 -27 298 -12 0 7 31 11
99 11 l98 0 6 -45 c11 -76 52 -149 119 -210 l61 -55 -714 0 -714 1 48 25 c94
49 170 152 184 249 l6 45 253 0 c147 0 254 -4 256 -9z m768 -21 c0 -24 53 -60
87 -60 33 0 74 29 84 59 3 8 18 11 42 9 l37 -3 -24 -50 c-29 -63 -71 -89 -141
-89 -78 0 -134 41 -156 116 -7 27 -7 28 32 28 21 0 39 -5 39 -10z"/>
<path d="M2826 4005 c-106 -44 -107 -51 -47 -194 52 -122 71 -151 100 -151 37
0 149 57 156 80 11 34 -89 264 -121 279 -14 6 -26 11 -27 11 -1 -1 -28 -12
-61 -25z m112 -132 c23 -54 42 -103 42 -109 0 -14 -92 -55 -102 -46 -9 9 -88
193 -88 204 0 9 77 47 96 48 6 0 30 -44 52 -97z"/>
<path d="M3562 3368 c-16 -16 -16 -90 0 -106 17 -17 319 -17 336 0 17 17 15
84 -4 102 -13 13 -43 16 -168 16 -105 0 -156 -4 -164 -12z"/>
<path d="M2062 2813 c-64 -8 -19 -23 68 -23 97 0 127 14 53 24 -47 6 -62 6
-121 -1z"/>
<path d="M2865 2950 c-4 -6 45 -10 140 -10 95 0 144 4 140 10 -4 6 -62 10
-140 10 -78 0 -136 -4 -140 -10z"/>
<path d="M3064 2725 c-16 -41 17 -53 145 -51 57 1 76 5 84 18 8 12 7 21 -2 32
-19 23 -219 24 -227 1z"/>
<path d="M3064 2615 c-4 -8 -4 -22 0 -30 8 -22 324 -22 332 0 4 8 1 22 -6 30
-18 22 -318 22 -326 0z"/>
<path d="M3056 2494 c-15 -40 7 -45 213 -42 l196 3 0 25 0 25 -201 3 c-180 2
-202 1 -208 -14z"/>
<path d="M1487 2426 c-35 -33 -42 -67 -22 -105 29 -57 91 -66 136 -22 82 82
-29 206 -114 127z"/>
<path d="M2972 4271 c-8 -5 36 -10 105 -13 145 -7 360 2 341 13 -17 11 -429
11 -446 0z"/>
<path d="M1437 4093 c-26 -2 -45 -8 -42 -14 8 -12 202 -12 210 1 4 6 -8 10
-28 10 -19 0 -47 2 -63 4 -16 1 -50 1 -77 -1z"/>
<path d="M3165 3870 c-4 -7 73 -10 224 -10 147 0 231 4 231 10 0 6 -81 10
-224 10 -139 0 -227 -4 -231 -10z"/>
<path d="M1680 3781 l-45 -6 55 -8 c69 -9 330 -8 390 2 l45 7 -64 7 c-74 8
-315 7 -381 -2z"/>
<path d="M1290 3360 c0 -6 38 -10 95 -10 57 0 95 4 95 10 0 6 -38 10 -95 10
-57 0 -95 -4 -95 -10z"/>
<path d="M4055 2901 c-28 -11 95 -21 175 -14 45 4 58 9 45 14 -26 10 -194 10
-220 0z"/>
<path d="M841 1709 c-132 -16 -220 -85 -229 -179 -7 -75 5 -116 45 -155 43
-41 104 -66 237 -94 118 -25 146 -40 146 -80 0 -37 -19 -52 -73 -58 -62 -7
-123 12 -149 47 l-22 30 -109 0 c-108 0 -108 0 -102 -22 38 -126 156 -192 345
-192 232 0 367 111 336 277 -13 71 -103 130 -246 162 -150 33 -185 47 -188 76
-5 39 21 54 91 53 55 -1 63 -4 89 -32 28 -32 28 -32 128 -32 113 0 121 7 77
71 -67 99 -211 148 -376 128z"/>
<path d="M1320 1360 l0 -340 102 0 101 0 -6 261 c-3 143 -4 259 -2 257 2 -2
29 -111 60 -243 31 -132 59 -248 61 -257 5 -16 18 -18 98 -18 l94 0 6 28 c3
15 35 135 70 267 l65 240 0 -267 1 -268 105 0 105 0 0 340 0 340 -158 0 -159
0 -36 -132 c-20 -73 -44 -162 -52 -198 -9 -36 -19 -72 -22 -80 -2 -8 -26 71
-52 175 -26 105 -51 200 -55 213 -7 22 -10 22 -167 22 l-159 0 0 -340z"/>
<path d="M2506 1691 c-6 -8 -153 -395 -227 -594 l-29 -78 112 3 111 3 20 58
19 58 141 -3 140 -3 20 -57 19 -58 119 0 119 0 -19 48 c-10 26 -72 179 -136
340 l-117 292 -143 0 c-79 0 -146 -4 -149 -9z m184 -257 c22 -65 40 -122 40
-126 0 -4 -36 -8 -80 -8 -49 0 -80 4 -80 10 0 16 74 250 77 246 2 -2 21 -56
43 -122z"/>
<path d="M3140 1360 l0 -340 105 0 104 0 3 123 3 122 60 3 c79 4 133 -12 139
-41 3 -12 7 -60 11 -106 3 -46 8 -88 11 -93 3 -4 53 -8 112 -8 l107 0 -6 112
c-6 122 -12 142 -59 181 -34 29 -37 37 -14 37 30 0 81 63 89 108 12 72 -3 122
-49 168 -65 66 -107 74 -383 74 l-233 0 0 -340z m429 164 c27 -35 26 -59 -4
-89 -22 -23 -32 -25 -120 -25 l-95 0 0 70 0 70 99 0 c96 0 100 -1 120 -26z"/>
<path d="M3870 1620 l0 -80 110 0 110 0 0 -260 0 -260 110 0 110 0 0 260 0
259 113 3 112 3 3 78 3 77 -336 0 -335 0 0 -80z"/>
</g>
</svg>
